<?xml version="1.0" standalone="no"?>
<!DOCTYPE svg PUBLIC "-//W3C//DTD SVG 20010904//EN"
 "http://www.w3.org/TR/2001/REC-SVG-20010904/DTD/svg10.dtd">
<svg version="1.0" xmlns="http://www.w3.org/2000/svg"
 width="558.000000pt" height="558.000000pt" viewBox="0 0 558.000000 558.000000"
 preserveAspectRatio="xMidYMid meet">
<metadata>
Created by potrace 1.11, written by Peter Selinger 2001-2013
</metadata>
<g transform="translate(0.000000,558.000000) scale(0.100000,-0.100000)"
fill="#000000" stroke="none">
<path d="M2703 5126 c-42 -19 -66 -59 -66 -110 0 -84 56 -126 167 -126 170 0
437 -47 617 -109 406 -138 724 -362 993 -697 35 -45 72 -84 81 -88 9 -3 36 -6
60 -6 78 0 137 75 116 148 -23 78 -263 342 -441 484 -321 256 -726 433 -1128
493 -155 23 -361 29 -399 11z"/>
<path d="M2011 5032 c-21 -22 -61 -48 -96 -62 -113 -44 -310 -148 -415 -217
-351 -232 -629 -548 -815 -928 -324 -662 -324 -1414 0 -2073 261 -531 706
-938 1263 -1156 446 -175 995 -201 1462 -72 483 135 925 427 1226 812 67 85
185 267 229 352 45 87 43 126 -10 179 -27 27 -41 33 -74 33 -71 0 -93 -19
-159 -138 -266 -477 -719 -834 -1257 -991 -360 -105 -759 -107 -1135 -6 -217
59 -461 176 -673 325 -121 84 -381 345 -467 467 -205 292 -324 587 -381 948
-17 104 -17 445 -1 560 52 362 202 723 420 1010 122 159 352 368 540 489 64
42 281 156 296 156 3 0 6 -621 6 -1380 l0 -1380 775 0 c845 0 808 -2 854 56
25 32 28 92 6 133 -32 62 -18 61 -734 61 l-651 0 0 1385 c0 1502 3 1421 -52
1459 -13 9 -43 16 -72 16 -44 0 -53 -4 -85 -38z"/>
<path d="M2681 4304 c-17 -14 -35 -42 -41 -62 -6 -24 -10 -312 -10 -804 l0
-768 459 0 460 0 35 34 c32 30 36 39 36 85 0 42 -5 56 -29 83 l-29 33 -339 5
-338 5 -3 583 c-1 320 1 582 5 582 5 0 45 -7 90 -14 152 -27 280 -73 423 -153
125 -69 215 -144 356 -295 68 -73 99 -86 159 -66 84 28 109 121 54 199 -51 71
-218 229 -314 298 -106 74 -293 168 -421 211 -122 40 -303 70 -424 70 -91 0
-101 -2 -129 -26z"/>
<path d="M1414 3481 c-24 -15 -39 -39 -66 -107 -128 -320 -148 -671 -57 -999
154 -559 622 -989 1200 -1102 118 -23 437 -25 544 -4 114 22 294 77 375 114
277 126 520 338 674 587 52 84 58 125 26 177 -23 39 -52 55 -101 57 -58 1 -83
-20 -150 -123 -75 -115 -229 -272 -342 -350 -226 -154 -472 -231 -737 -232
-315 0 -600 105 -843 310 -258 217 -415 523 -449 875 -18 193 14 405 91 598
36 89 38 112 11 155 -37 61 -116 81 -176 44z"/>
</g>
</svg>
